<?xml version="1.0" standalone="no"?><!DOCTYPE svg PUBLIC "-//W3C//DTD SVG 1.1//EN" "http://www.w3.org/Graphics/SVG/1.1/DTD/svg11.dtd"><svg class="icon" width="64px" height="64.00px" viewBox="0 0 1024 1024" version="1.1" xmlns="http://www.w3.org/2000/svg"><path fill="#e6e6e6" d="M510.23 766.272c-18.154 0-21.736-18.195-21.736-36.225V643.1c0-18.03 3.582-39.853 21.737-39.853 18.15 0 21.737 21.823 21.737 39.853v86.948c0 18.03-3.588 36.225-21.737 36.225z m328.841 195.636h-657.68c-54.393 0-98.655-43.887-98.655-97.818V505.428c0-53.925 47.048-94.19 101.44-94.19h652.11c54.387 0 101.438 40.265 101.438 94.19V864.09c0 53.931-44.267 97.818-98.653 97.818zM198.667 454.71c-43.12 0-70.076 22.145-72.457 57.965V860.47c0 18 39.846 57.965 57.966 57.965h652.11c18.15 0 57.965-39.965 57.965-57.965V512.676c0-39.393-17.199-57.965-57.965-57.965h-637.62z m541.75-10.867c-18.184 0-20.062-0.115-20.062-18.116v-115.93c0-110.822-123.42-202.879-217.37-202.879-96.153 0-202.878 81.977-202.878 202.879v101.44c0 18-1.915 32.606-20.063 32.606-18.153 0-23.411-14.606-23.411-32.607v-101.44c0-161.723 117.874-246.352 246.353-246.352 125.255 0 260.844 93.829 260.844 246.353v115.93c0 18.001-5.23 18.116-23.413 18.116z m0 0"  /></svg>